# xmcd
#
# Track frame offsets: 
#        150
#        18656
#        42174
#        66138
#        86736
#        104504
#        129144
#        147335
#        167539
#
# Disc length: 2563 seconds
#
# Revision: 0
# Processed by: cddbd v1.5.2PL0 Copyright (c) Steve Scherf et al.
# Submitted via: ExactAudioCopy v1.3
#
DISCID=740a0109
DTITLE=Tim Staffell - Two Late
DYEAR=2018
DGENRE=Blues
TTITLE0=Big Wild World
TTITLE1=Ill Wind
TTITLE2=Close All The Gates
TTITLE3=Kangaroo Dancin'
TTITLE4=Is Anybody Out There?
TTITLE5=Never Gonna Be Alright
TTITLE6=Lady's Gone
TTITLE7=Who Do You Think You're Foolin'?
TTITLE8=Chameleon
EXTD=
EXTT0=
EXTT1=
EXTT2=
EXTT3=
EXTT4=
EXTT5=
EXTT6=
EXTT7=
EXTT8=
PLAYORDER=
